<?xml version="1.0" standalone="no"?><!DOCTYPE svg PUBLIC "-//W3C//DTD SVG 1.1//EN" "http://www.w3.org/Graphics/SVG/1.1/DTD/svg11.dtd"><svg t="1583909932512" class="icon" viewBox="0 0 1024 1024" version="1.1" xmlns="http://www.w3.org/2000/svg" p-id="7301" xmlns:xlink="http://www.w3.org/1999/xlink" width="200" height="200"><defs><style type="text/css"></style></defs><path d="M842.8544 814.08a448 448 0 1 0-662.4768-0.768l143.872-64.2048s46.336-14.2336 59.0336-28.4672c8.3968-9.472 11.008-40.704 0.3072-61.184-10.6496-20.48-97.2288-133.2736-97.2288-227.84 0-152.576 100.1984-276.1728 223.744-276.1728 123.5456 0 223.744 123.648 223.744 276.1728 0 98.7136-97.1264 207.4624-105.1136 234.1888-7.9872 26.7776-8.6528 47.7184 0.3584 56.576 14.0288 13.824 50.176 27.8528 50.176 27.8528l163.584 63.7952zM512 1024C229.2224 1024 0 794.7776 0 512S229.2224 0 512 0s512 229.2224 512 512-229.2224 512-512 512z" fill="#BABFC3" p-id="7302"></path></svg>