<?xml version="1.0" standalone="no"?><!DOCTYPE svg PUBLIC "-//W3C//DTD SVG 1.1//EN" "http://www.w3.org/Graphics/SVG/1.1/DTD/svg11.dtd"><svg t="1583910333387" class="icon" viewBox="0 0 1024 1024" version="1.1" xmlns="http://www.w3.org/2000/svg" p-id="10260" xmlns:xlink="http://www.w3.org/1999/xlink" width="200" height="200"><defs><style type="text/css"></style></defs><path d="M512.000002 1023.953457c-282.774056 0-512-229.202673-512-511.953457 0-282.750784 229.225944-512 512-512 282.750784 0 511.953457 229.249216 511.953457 512s-229.202673 511.953457-511.953457 511.953457zM512.023274 46.589882C254.964413 46.589882 46.589884 254.964411 46.589884 512.023272s208.374528 465.433389 465.43339 465.433389 465.433389-208.374528 465.433389-465.433389S769.082135 46.589882 512.023274 46.589882zM186.219901 349.121585h5.445571L279.306579 209.491569h470.87896L837.826646 349.121585v442.16172H186.219901V349.121585z m279.260034 232.716695v116.358347h93.086678v-116.358347h69.815008l-116.358347-116.358347-116.358348 116.358347h69.815009z m279.260033-186.173356l-50.057361-139.630016H325.849918l-50.057361 139.630016H744.739968z" p-id="10261"></path></svg>