<?xml version="1.0" standalone="no"?><!DOCTYPE svg PUBLIC "-//W3C//DTD SVG 1.1//EN" "http://www.w3.org/Graphics/SVG/1.1/DTD/svg11.dtd"><svg t="1583910522478" class="icon" viewBox="0 0 1024 1024" version="1.1" xmlns="http://www.w3.org/2000/svg" p-id="14837" data-spm-anchor-id="a313x.7781069.0.i40" xmlns:xlink="http://www.w3.org/1999/xlink" width="200" height="200"><defs><style type="text/css"></style></defs><path d="M512 1011.898182c273.780364 0 496.484848-222.704485 496.484848-496.453818a491.644121 491.644121 0 0 0-71.866181-257.396364 31.030303 31.030303 0 1 0-53.061819 32.209455 430.297212 430.297212 0 0 1 62.836364 225.155878c0 239.522909-194.901333 434.393212-434.424242 434.393212s-434.424242-194.870303-434.424243-434.393212c0-239.553939 194.870303-434.455273 434.424243-434.455272a432.128 432.128 0 0 1 287.744 108.978424 31.030303 31.030303 0 1 0 41.146182-46.483394A494.312727 494.312727 0 0 0 512 18.928485C238.250667 18.928485 15.515152 241.664 15.515152 515.444364c0 273.749333 222.735515 496.453818 496.484848 496.453818z" fill="#333333" p-id="14838" data-spm-anchor-id="a313x.7781069.0.i41" class="selected"></path><path d="M399.049697 439.32703a113.074424 113.074424 0 0 0 112.950303 112.950303c62.246788 0 112.888242-50.672485 112.888242-112.950303s-50.641455-112.950303-112.888242-112.950303a113.074424 113.074424 0 0 0-112.950303 112.950303z m112.950303-57.095757a57.126788 57.126788 0 0 1 0 114.191515c-31.495758 0-57.095758-25.63103-57.095758-57.095758s25.6-57.095758 57.095758-57.095757z" fill="#333333" p-id="14839" data-spm-anchor-id="a313x.7781069.0.i43" class="selected"></path><path d="M286.471758 434.517333c0 31.340606 6.361212 61.688242 18.152727 88.405334 44.559515 125.362424 180.534303 282.717091 186.305939 289.357575 5.306182 6.11297 12.970667 9.619394 21.069576 9.619394h0.155152a27.865212 27.865212 0 0 0 21.131636-9.867636c100.445091-118.473697 174.576485-236.916364 193.008485-307.479273a221.277091 221.277091 0 0 0 10.581333-57.840485c0.682667-7.788606 0.620606-12.194909 0.589576-12.194909 0-124.369455-101.189818-225.559273-225.559273-225.559272-124.307394-0.03103-225.435152 101.189818-225.435151 225.559272z m395.170909 0.341334c0 0.589576-0.03103 3.009939-0.465455 8.129939-0.713697 15.297939-3.413333 30.192485-8.440242 45.831758-15.39103 58.709333-77.420606 159.216485-160.73697 261.461333-39.563636-48.872727-123.810909-159.030303-155.492848-247.932121a167.346424 167.346424 0 0 1-14.211879-67.832243 169.859879 169.859879 0 0 1 169.611636-169.735757 169.984 169.984 0 0 1 169.735758 170.077091z" fill="#333333" p-id="14840" data-spm-anchor-id="a313x.7781069.0.i38" class="selected"></path></svg>