<?xml version="1.0" standalone="no"?><!DOCTYPE svg PUBLIC "-//W3C//DTD SVG 1.1//EN" "http://www.w3.org/Graphics/SVG/1.1/DTD/svg11.dtd"><svg t="1583910241755" class="icon" viewBox="0 0 1024 1024" version="1.1" xmlns="http://www.w3.org/2000/svg" p-id="6503" width="200" height="200" xmlns:xlink="http://www.w3.org/1999/xlink"><defs><style type="text/css"></style></defs><path d="M512 0C230.4 0 0 230.4 0 512s230.4 512 512 512 512-230.4 512-512S793.6 0 512 0z m-15.36 284.16s10.24-2.56 15.36-2.56c2.56 0 12.8 2.56 12.8 2.56l240.64 66.56-87.04 23.04-258.56-71.68 76.8-17.92z m-5.12 455.68c-5.12 2.56-20.48-2.56-20.48-2.56l-176.64-48.64s-15.36-10.24-25.6-17.92-12.8-35.84-12.8-35.84v-256l238.08 66.56v289.28c0-2.56 0 5.12-2.56 5.12z m20.48-317.44l-256-69.12 99.84-28.16 256 69.12-99.84 28.16z m245.76 250.88c-12.8 12.8-46.08 20.48-46.08 20.48l-158.72 43.52s-15.36 7.68-20.48 2.56c-2.56-5.12-2.56-30.72-2.56-30.72V445.44l112.64-30.72v110.08L691.2 512v-110.08l74.24-20.48v230.4c2.56-5.12 5.12 48.64-7.68 61.44z" fill="#333333" p-id="6504" data-spm-anchor-id="a313x.7781069.0.i13" class="selected"></path></svg>