<?xml version="1.0" standalone="no"?><!DOCTYPE svg PUBLIC "-//W3C//DTD SVG 1.1//EN" "http://www.w3.org/Graphics/SVG/1.1/DTD/svg11.dtd"><svg t="1583910287924" class="icon" viewBox="0 0 1024 1024" version="1.1" xmlns="http://www.w3.org/2000/svg" p-id="7499" xmlns:xlink="http://www.w3.org/1999/xlink" width="200" height="200"><defs><style type="text/css"></style></defs><path d="M512 0C229.451852 0 0 229.451852 0 512s229.451852 512 512 512 512-229.451852 512-512S794.548148 0 512 0z m0 986.074074C250.311111 986.074074 37.925926 773.688889 37.925926 512S250.311111 37.925926 512 37.925926s474.074074 212.385185 474.074074 474.074074-212.385185 474.074074-474.074074 474.074074z" fill="#333333" p-id="7500" data-spm-anchor-id="a313x.7781069.0.i21" class="selected"></path><path d="M572.681481 538.548148c47.407407-22.755556 79.644444-70.162963 79.644445-127.051852 0-77.748148-62.577778-140.325926-140.325926-140.325926s-140.325926 62.577778-140.325926 140.325926c0 56.888889 32.237037 104.296296 79.644445 127.051852-92.918519 26.548148-161.185185 111.881481-161.185186 214.281482h445.62963c0-102.4-70.162963-187.733333-163.081482-214.281482z" fill="#333333" p-id="7501" data-spm-anchor-id="a313x.7781069.0.i19" class="selected"></path></svg>