<?xml version="1.0" standalone="no"?><!DOCTYPE svg PUBLIC "-//W3C//DTD SVG 1.1//EN" "http://www.w3.org/Graphics/SVG/1.1/DTD/svg11.dtd"><svg t="1583909845523" class="icon" viewBox="0 0 1024 1024" version="1.1" xmlns="http://www.w3.org/2000/svg" p-id="2049" xmlns:xlink="http://www.w3.org/1999/xlink" width="200" height="200"><defs><style type="text/css"></style></defs><path d="M512 512m-512 0a512 512 0 1 0 1024 0 512 512 0 1 0-1024 0Z" p-id="2050"></path><path d="M406.714617 716.570318a30.356336 30.356336 0 0 1-21.336524-8.546094l-120.195588-117.870056a29.188785 29.188785 0 0 1 0-41.845233c11.78557-11.555888 30.887477-11.555888 42.668261 0l98.859066 97.241719 309.204934-303.515514a30.576449 30.576449 0 0 1 29.140935-7.656075c10.412262 2.737047 18.546841 10.708935 21.336523 20.920225a29.198355 29.198355 0 0 1-7.809196 28.581084l-330.536673 324.14385a30.356336 30.356336 0 0 1-21.331738 8.546094z" p-id="2051"></path></svg>